<?xml version="1.0" encoding="utf-8" ?>
<svg xmlns="http://www.w3.org/2000/svg" xmlns:xlink="http://www.w3.org/1999/xlink" width="1313" height="1313">
	<path fill="#13B3B3" transform="scale(1.28223 1.28223)" d="M0 0L1024 0L1024 1024L0 1024L0 0Z"/>
	<path fill="#FEFDFD" transform="scale(1.28223 1.28223)" d="M760.402 185.147C768.318 184.216 785.362 192.722 791.541 197.582C802.051 205.847 809.379 219.248 810.83 232.514C811.578 239.363 810.672 246.088 808.957 252.726C806.665 261.598 803.541 270.288 800.889 279.061L784.659 333.539L724.901 532.031L655.622 762.705L633.339 835.306L623.186 868.786C621.24 875.296 619.582 881.971 617.356 888.386C615.438 893.916 612.939 898.818 609.216 903.354C600.421 914.069 588.322 920.268 574.539 921.479C565.436 922.279 558.244 920.491 549.497 918.419C547.398 917.922 544.939 917.714 543.09 916.582L543.384 916.078Q544.731 915.814 546.071 915.513C549.152 915.415 552.626 914.368 555.571 913.447C567.574 909.694 578.364 900.235 584.075 889.057C588.401 880.589 590.391 870.814 593.152 861.743Q601.182 836.145 608.657 810.379L662.137 631.863L730.934 404.144Q753.083 334.133 773.735 263.667C776.711 253.16 780.49 242.803 783.144 232.218C785.027 224.709 784.834 217.406 782.358 210.042C778.638 198.978 770.749 190.374 760.402 185.147Z"/>
	<path fill="#005066" transform="scale(1.28223 1.28223)" d="M546.071 915.513Q542.561 915.719 539.061 915.388Q535.56 915.057 532.151 914.196C521.604 911.541 511.17 907.574 500.803 904.253L439.499 884.967Q357.223 860.165 275.36 834.033C266.362 831.133 257.162 828.793 248.205 825.796C235.45 821.529 224.924 813.371 218.878 801.177C214.013 791.367 212.291 779.339 214.292 768.574C216.163 758.502 219.829 748.497 222.88 738.73L237.796 690.481L293.782 506.874L369.24 256.096L387.49 196.158C394.251 173.255 400.682 150.055 408.309 127.426C412.552 114.837 421.06 103.569 433.184 97.6634C442.433 93.1578 454.414 91.8989 464.506 93.5666C476.925 95.6189 489.102 100.431 501.078 104.232L567.21 125.173L689.531 163.087C713.182 170.369 737.04 176.952 760.402 185.147C770.749 190.374 778.638 198.978 782.358 210.042C784.834 217.406 785.027 224.709 783.144 232.218C780.49 242.803 776.711 253.16 773.735 263.667Q753.083 334.133 730.934 404.144L662.137 631.863L608.657 810.379Q601.183 836.145 593.152 861.743C590.391 870.814 588.401 880.589 584.075 889.057C578.364 900.235 567.574 909.694 555.571 913.447C552.626 914.368 549.152 915.415 546.071 915.513Z"/>
	<path fill="#A97875" transform="scale(1.28223 1.28223)" d="M376.078 801.922C378.508 800.704 379.272 798.906 382.14 798.612C376.246 804.076 372.625 809.737 372.356 818.052C372.195 823.038 373.252 827.676 375.206 832.246C379.731 840.113 387.194 846.693 396.147 848.939C402.021 850.413 409.079 849.801 414.343 846.656C417.231 844.93 419.914 842.413 422.186 839.949L423.103 840.184C425.118 838.977 425.583 836.208 427.778 834.822C425.486 841.021 419.676 846.327 413.8 849.139C406.908 852.437 399.178 852.524 392.042 850.014C384.404 847.326 377.268 841.415 373.771 834.047C370.836 829.239 369.881 823.852 370.129 818.286C370.377 812.706 371.814 805.819 376.078 801.922Z"/>
	<path fill="#B47871" transform="scale(1.28223 1.28223)" d="M376.078 801.922C378.384 798.234 382.548 795.222 386.455 793.485C394.595 789.865 403.73 790.008 411.979 793.129C419.496 796.062 425.261 802.074 428.428 809.44Q428.728 810.15 428.993 810.874Q429.257 811.597 429.485 812.333Q429.713 813.07 429.905 813.816Q430.096 814.562 430.25 815.318Q430.404 816.073 430.52 816.834Q430.636 817.596 430.715 818.363Q430.793 819.13 430.833 819.899Q430.873 820.669 430.875 821.439Q430.877 822.21 430.84 822.98Q430.804 823.749 430.729 824.516Q430.654 825.283 430.542 826.046Q430.429 826.808 430.279 827.564Q430.128 828.32 429.94 829.067Q429.752 829.814 429.528 830.552Q429.303 831.289 429.042 832.014Q428.781 832.739 428.484 833.45C428.14 834.297 428.252 834.042 427.778 834.822C425.583 836.208 425.118 838.977 423.103 840.184L422.186 839.949L422.704 839.089C427.296 831.415 429.556 822.619 427.12 813.774C424.616 804.683 417.829 798.946 409.882 794.627C400.271 792.582 392.541 793.015 383.744 797.749L382.14 798.612C379.272 798.906 378.508 800.704 376.078 801.922Z"/>
	<path fill="#FEFDFD" transform="scale(1.28223 1.28223)" d="M555.801 147.132C560.871 147.98 565.893 150.039 570.78 151.647L593.966 159.145C606.709 163.206 619.493 167.1 632.193 171.302C636.219 172.634 641.459 173.734 645.125 175.754C646.365 176.436 646.541 177.242 646.866 178.523C646.546 180.167 645.88 181.043 644.888 182.327C638.566 181.404 555.397 154.352 554.199 153.005C553.42 152.13 553.083 151.118 553.325 149.961C553.636 148.475 554.636 147.876 555.801 147.132Z"/>
	<path fill="#F3BBB3" transform="scale(1.28223 1.28223)" d="M382.14 798.612L383.744 797.749C392.541 793.015 400.271 792.582 409.882 794.627C417.829 798.946 424.616 804.683 427.12 813.774C429.556 822.619 427.296 831.415 422.704 839.089L422.186 839.949C419.914 842.413 417.231 844.93 414.343 846.656C409.079 849.801 402.021 850.413 396.147 848.939C387.194 846.693 379.731 840.113 375.206 832.246C373.252 827.676 372.195 823.038 372.356 818.052C372.625 809.737 376.246 804.076 382.14 798.612Z"/>
	<path fill="#EE8C38" transform="scale(1.28223 1.28223)" d="M422.619 143.632C435.95 146.558 448.984 150.844 462.063 154.712C478.443 159.557 494.858 164.14 511.197 169.158L616.149 200.446L709.489 228.208Q726.048 233.015 742.659 237.638C748.632 239.306 754.947 240.617 760.728 242.836C759.622 247.593 758.487 252.284 757.002 256.942C730.659 274.858 705.284 294.344 679.831 313.502C667.406 322.853 654.462 331.692 642.242 341.285C640.63 353.426 637.081 366.126 634.341 378.075C633.178 383.143 631.847 388.118 631.339 393.307C631.332 393.38 631.322 393.452 631.313 393.525C618.476 399.125 606.355 405.57 594.142 412.394L593.135 411.537L593.626 412.721L592.721 413.286C596.533 412.439 600.725 409.962 604.247 408.257C613.474 403.791 622.723 398.614 632.426 395.285C636.14 378.067 639.154 358.899 644.231 342.191Q686.922 310.877 729.24 279.062C738.206 272.22 747.774 265.831 756.452 258.668L630.053 671.885C623.358 694.48 616.82 717.185 609.873 739.697Q599.259 773.263 589.695 807.143C587.539 814.662 585.086 822.18 583.119 829.743C571.121 825.879 558.991 822.481 546.908 818.901L545.09 818.177C539.088 817.367 532.833 814.684 526.987 813.012C511.185 808.49 495.022 804.143 479.479 798.839L477.208 798.213C452.274 789.363 426.429 782.448 401.076 774.888L307.46 746.442L266.037 734.007C259.172 731.942 252.037 730.241 245.333 727.729L371.182 313.396L405.244 198.732C410.734 180.469 415.335 161.233 422.619 143.632Z"/>
	<path fill="#440200" transform="scale(1.28223 1.28223)" d="M616.048 408.455C617.991 408.451 619.997 408.839 621.923 409.09C629.69 416.798 638.131 424.201 646.404 431.376C651.784 436.042 658.586 440.802 662.839 446.543C654.562 442.048 621.11 415.303 616.048 408.455Z"/>
	<path fill="#440200" transform="scale(1.28223 1.28223)" d="M477.208 798.213C485.947 791.705 495.042 785.685 503.74 779.119C522.169 765.209 540.196 750.131 557.307 734.65C561.002 731.306 581.987 711.563 584.506 711.041L584.11 711.148C584.069 711.282 584.044 711.422 583.987 711.55C582.759 714.268 529.331 761.362 521.829 767.605C528.317 779.716 534.1 792.187 540.002 804.589C542.228 809.266 545.151 814.059 546.908 818.901L545.09 818.177C541.199 812.887 538.553 804.857 535.769 798.816L521.349 768.247C510.295 778.308 492.219 790.439 479.479 798.839L477.208 798.213Z"/>
	<path fill="#EE8C38" transform="scale(1.28223 1.28223)" d="M521.349 768.247L535.769 798.816C538.553 804.857 541.199 812.887 545.09 818.177C539.088 817.367 532.833 814.684 526.987 813.012C511.185 808.49 495.022 804.143 479.479 798.839C492.219 790.439 510.295 778.308 521.349 768.247Z"/>
	<path fill="#FEFDFD" transform="scale(1.28223 1.28223)" d="M545.311 305.933L545.672 306.348C545.225 314.629 541.681 326.547 540.088 335.126Q531.677 381.814 521.197 428.082C528.005 430.074 534.706 433.251 541.229 436.015C548.761 431.917 557.445 429.001 565.397 425.755Q591.548 414.923 618.126 405.185C619.186 404.802 619.64 404.632 620.708 405.107C621.169 406.284 621.118 406.572 620.944 407.84L620.451 406.84C618.822 406.217 617.525 406.794 616.002 407.413C610.133 409.794 604.712 413.474 598.998 416.249C581.508 424.744 563.726 433.494 545.721 440.811C545.193 450.528 543.317 460.41 539.791 469.495C547.826 473.861 555.513 478.953 563.335 483.691Q590.373 499.838 616.796 516.972C625.444 522.503 641.098 531.123 647.906 537.824C623.991 523.84 599.503 510.895 575.202 497.601C561.144 489.911 546.639 482.67 533.454 473.521C529.881 478.952 525.843 484.106 521.955 489.316C524.943 516.155 529.393 542.905 533.082 569.668C534.184 577.666 535.372 585.666 536.318 593.684C536.728 597.158 536.621 601.197 537.471 604.551C537.711 605.496 537.586 604.67 537.697 605.763L537.64 605.725L537.884 605.032L537.197 604.755C533.543 591.048 531.661 576.641 528.918 562.728C524.012 537.836 518.547 512.902 515.369 487.718C507.67 484.168 500.659 479.094 493.162 475.098C488.368 481.138 483.061 486.858 477.989 492.671C473.396 497.72 469.151 503.146 464.684 508.315L437.955 538.697C426.752 551.684 415.712 565.001 403.823 577.366C410.206 567.139 418.546 557.481 425.864 547.888C445.544 522.092 466.027 497.044 486.309 471.733C482.987 469.769 480.044 467.504 477.154 464.956L364.463 479.447C374.698 475.975 386.022 474.517 396.639 472.45C423.959 467.132 451.479 463.015 478.783 457.709C482.959 448.981 484.488 438.379 487.346 429.095C474.312 414.854 460.651 401.145 447.363 387.137C433.951 372.999 420.96 358.534 407.247 344.673L407.821 345.127L407.229 344.329C413.901 348.267 423.647 358.639 429.811 364.333Q462.449 394.235 493.822 425.461L514.261 427.129C517.735 414.606 520.439 401.873 523.481 389.242C530.165 361.487 536.892 333.203 545.311 305.933Z"/>
	<path fill="#EE8C38" transform="scale(1.28223 1.28223)" d="M493.843 432.967C499.935 433.862 506.313 433.956 512.465 434.541C512.318 435.877 512.042 437.558 512.379 438.875C512.701 440.131 513.381 440.811 514.411 441.504C515.758 441.489 516.251 441.461 517.295 440.444C518.514 439.255 518.566 436.322 518.763 434.685C525.534 436.897 531.93 441.272 539.016 442.342Q536.614 454.026 533.623 465.573C532.06 464.6 530.402 463.75 528.789 462.857L531.05 446.262C523.764 446.506 516.354 447.294 509.611 443.875C505.731 441.908 502.081 439.542 498.06 437.845C495.606 446.701 493.841 455.713 491.95 464.701C496.893 463.87 499.396 462.313 503.799 465.455C507.219 467.895 513.815 474.563 518.059 474.031C519.699 473.826 520.667 472.587 521.44 471.272C522.05 470.235 522.471 469.18 523.27 468.265C524.318 468.641 525.015 469.031 525.892 469.717C525.03 472.947 520.521 478.729 518.563 481.895C507.331 474.505 495.474 468.079 483.572 461.85C489.713 454.508 491.234 442.006 493.843 432.967Z"/>
	<path fill="#9E432A" transform="scale(1.28223 1.28223)" d="M498.06 437.845C502.081 439.542 505.731 441.908 509.611 443.875C516.354 447.294 523.764 446.506 531.05 446.262L528.789 462.857C527.091 462.814 524.737 462.614 523.312 463.768C522.65 464.305 522.359 464.619 522.309 465.467C522.242 466.587 522.584 467.401 523.27 468.265C522.471 469.18 522.05 470.235 521.44 471.272C520.667 472.587 519.699 473.826 518.059 474.031C513.815 474.563 507.219 467.895 503.799 465.455C499.396 462.313 496.893 463.87 491.95 464.701C493.841 455.713 495.606 446.701 498.06 437.845Z"/>
</svg>
